# xmcd
#
# Track frame offsets: 
#        150
#        12443
#        47929
#        60718
#        71573
#        109721
#        178884
#        193460
#        204262
#        234193
#
# Disc length: 3274 seconds
#
# Revision: 1
# Processed by: cddbd v1.5.2PL0 Copyright (c) Steve Scherf et al.
# Submitted via: ExactAudioCopy v1.0b3
#
DISCID=8f0cc80a
DTITLE=Charles Mingus - Mysterious Blues [CD 2)
DYEAR=1900
DGENRE=Jazz
TTITLE0=(Medley) You go to my Head
TTITLE1=A Night in Tunesia
TTITLE2=Baby, Take a Chance With me
TTITLE3=Pennies From Heaven
TTITLE4=Spur of the Moment
TTITLE5=What Love?
TTITLE6=Honey, Take a Chance With me
TTITLE7=I've got you Under my Skin
TTITLE8=Thrice Upon a Theme
TTITLE9=Time and Tide
EXTD=
EXTT0=
EXTT1=
EXTT2=
EXTT3=
EXTT4=
EXTT5=
EXTT6=
EXTT7=
EXTT8=
EXTT9=
PLAYORDER=
